<?xml version="1.0" encoding="utf-8"?>
<!-- Generator: Adobe Illustrator 16.1.0, SVG Export Plug-In . SVG Version: 6.00 Build 0)  -->
<!--<!DOCTYPE svg PUBLIC "-//W3C//DTD SVG 1.1//EN" "http://www.w3.org/Graphics/SVG/1.1/DTD/svg11.dtd">-->
<svg version="1.1" id="Layer_1" xmlns="http://www.w3.org/2000/svg" xmlns:xlink="http://www.w3.org/1999/xlink" x="0px" y="0px"
	 width="512px" height="512px" viewBox="0 0 512 512" enable-background="new 0 0 512 512" xml:space="preserve">
<g>
</g>
<path d="M255.994,114.677C132.724,114.677,32,256,32,256s100.724,141.289,223.994,141.289S480,256,480,256
	S379.265,114.677,255.994,114.677z M256,344.686c-48.997,0-88.708-39.726-88.708-88.709c0-48.986,39.711-88.697,88.708-88.697
	c48.985,0,88.708,39.711,88.708,88.697C344.708,304.96,304.986,344.686,256,344.686z"/>
<path d="M256,211.375c-24.635,0-44.614,19.966-44.614,44.602c0,24.672,19.979,44.613,44.614,44.613
	c24.647,0,44.613-19.94,44.613-44.613C300.614,231.341,280.648,211.375,256,211.375z"/>
</svg>
